<?xml version="1.0" encoding="utf-8"?>
<!-- Generator: Adobe Illustrator 21.1.0, SVG Export Plug-In . SVG Version: 6.00 Build 0)  -->
<svg version="1.1" id="Corporation" xmlns="http://www.w3.org/2000/svg" xmlns:xlink="http://www.w3.org/1999/xlink" x="0px"
	 y="0px" viewBox="0 0 82.8 48.2" style="enable-background:new 0 0 82.8 48.2;" xml:space="preserve">
<style type="text/css">
	.st0{fill:none;}
	.st1{fill:#FF6600;}
	.st2{fill:#FFFFFF;}
</style>
<g>
	<rect x="-11.9" y="0" class="st0" width="99" height="48.2"/>
	<g>
		<g>
			<g>
				<path class="st1" d="M80.7,32.3c0-1.2-0.9-2.1-2.1-2.1s-2.1,0.9-2.1,2.1s0.9,2.1,2.1,2.1C79.9,34.4,80.7,33.5,80.7,32.3
					L80.7,32.3L80.7,32.3z M78.1,32.4v1.4h-0.4v-3.1h1.1c0.7,0,1,0.3,1,0.8c0,0.3-0.2,0.6-0.5,0.7l0,0c0.3,0,0.4,0.3,0.4,0.7
					c0,0.3,0.1,0.7,0.2,0.9h-0.5c-0.1-0.3-0.1-0.7-0.2-1s-0.2-0.4-0.5-0.4H78.1L78.1,32.4z M78.7,32c0.4,0,0.6-0.2,0.6-0.4
					c0-0.2-0.1-0.4-0.6-0.4h-0.6V32H78.7L78.7,32z M76.1,32.3c0-1.5,1.2-2.5,2.6-2.5s2.6,1,2.6,2.5s-1.2,2.5-2.6,2.5
					S76.1,33.8,76.1,32.3L76.1,32.3z"/>
			</g>
			<g>
				<g>
					<g>
						<polygon class="st1" points="67.2,34.8 64.3,31.5 61.4,34.8 55.2,34.8 61.2,28 55.2,21.3 61.6,21.3 64.5,24.6 67.4,21.3 
							73.5,21.3 67.5,28 73.6,34.8 						"/>
						<polygon class="st1" points="43.4,34.8 43.4,13.5 55.2,13.5 55.2,18.3 48.4,18.3 48.4,21.3 55.2,21.3 55.2,25.8 48.4,25.8 
							48.4,30 55.2,30 55.2,34.8 						"/>
					</g>
					<path class="st2" d="M38.4,13.5v8.7h-0.1c-1.1-1.3-2.5-1.7-4.1-1.7c-3.3,0-5.7,2.2-6.6,5.2c-1-3.2-3.5-5.2-7.3-5.2
						c-3.1,0-5.5,1.4-6.8,3.6v-2.8H7.2v-3h6.9v-4.7H1.6v21.3h5.7V26h5.6c-0.2,0.7-0.3,1.4-0.3,2.1c0,4.4,3.4,7.6,7.7,7.6
						c3.6,0,6-1.7,7.3-4.8h-4.8c-0.7,0.9-1.2,1.2-2.5,1.2c-1.5,0-2.8-1.3-2.8-2.9h9.9c0.4,3.5,3.2,6.6,6.9,6.6c1.6,0,3.1-0.8,4-2.2
						h0.1V35h5V13.5H38.4z M17.7,25.9c0.3-1.4,1.4-2.2,2.7-2.2c1.4,0,2.4,0.9,2.7,2.2C23.2,25.9,17.7,25.9,17.7,25.9z M35.4,31.6
						c-1.8,0-3-1.7-3-3.5c0-1.9,1-3.7,3-3.7c2.1,0,2.9,1.8,2.9,3.7C38.3,29.9,37.4,31.6,35.4,31.6z"/>
				</g>
			</g>
		</g>
	</g>
</g>
</svg>
