<?xml version="1.0" encoding="utf-8"?>
<!-- Generator: Adobe Illustrator 22.1.0, SVG Export Plug-In . SVG Version: 6.00 Build 0)  -->
<svg version="1.1" id="Layer_1" xmlns="http://www.w3.org/2000/svg" xmlns:xlink="http://www.w3.org/1999/xlink" x="0px" y="0px"
	 viewBox="0 0 382.2 140.2" style="enable-background:new 0 0 382.2 140.2;" xml:space="preserve">
<style type="text/css">
	.st0{fill:#FFFFFF;}
	.st1{fill:#E5B138;}
	.st2{fill:none;}
</style>
<path class="st0" d="M27.9,68.2l6-7.2c3.7,2.8,7.8,3.9,11.8,3.9c2,0,2.9-0.5,2.9-1.4v-0.1c0-1-1.1-1.5-4.7-2.2
	c-7.5-1.5-14.2-3.7-14.2-10.8v-0.1c0-6.4,5-11.3,14.3-11.3c6.5,0,11.3,1.5,15.2,4.6l-5.5,7.6c-3.2-2.3-7-3.3-10.1-3.3
	c-1.7,0-2.5,0.6-2.5,1.4v0.1c0,0.9,0.9,1.5,4.5,2.2C54.2,53.1,60,55.6,60,62.4v0.1c0,7.1-5.8,11.4-14.8,11.4
	C38.3,73.9,32.2,71.9,27.9,68.2z"/>
<path class="st0" d="M77.2,49.1h-9.9v-9.5h31v9.5h-9.9v24.1H77.2V49.1z"/>
<path class="st0" d="M148.1,39.6h28.2v9.6h-16.9v4.3h15.7v8.7h-15.7v11h-11.2V39.6z"/>
<path class="st0" d="M186.1,39.6h28.2v9.6h-16.9v4.3h15.7v8.7h-15.7v11h-11.2V39.6z"/>
<path class="st1" d="M224.1,39.6h11.2v24h15.8v9.6h-27.1V39.6z"/>
<path class="st1" d="M260.4,39.6h11.2v33.6h-11.2V39.6z"/>
<path class="st1" d="M282.4,39.6h10.5l12,14.8V39.6h11.1v33.6h-10l-12.5-15.5v15.5h-11.1V39.6z"/>
<path class="st1" d="M326,39.6h28.7v9.2H337v3.4h16.4v8.1H337V64h17.9v9.2H326V39.6z"/>
<polygon class="st2" points="116.4,58.7 118.7,61.3 121,58.7 118.7,52.6 "/>
<polygon class="st0" points="116.4,58.7 118.7,52.6 121,58.7 128.7,49.8 124.4,39.4 113.2,39.4 105.1,58.6 116.4,58.6 "/>
<polygon class="st0" points="124.6,68.9 126.3,73.2 138.5,73.2 132.8,59.5 "/>
<polygon class="st0" points="99,73.2 111.1,73.2 112.7,68.9 104.7,59.7 "/>
<path class="st1" d="M128.7,49.8L128.7,49.8l-7.7,8.9l-2.3,2.6l-2.3-2.6l0,0h-11.3h-1.4l0.9,1.1l8,9.2l2.4,2.7
	c0.3,0.3,0.6,0.6,0.9,0.8c0,0,0.1,0,0.1,0.1c0.1,0.1,0.3,0.2,0.4,0.2c0,0,0.1,0.1,0.1,0.1c0.2,0.1,0.4,0.2,0.6,0.2
	c0.1,0,0.1,0,0.2,0c0.2,0,0.3,0.1,0.5,0.1c0.1,0,0.1,0,0.2,0c0.2,0,0.4,0,0.6,0c0,0,0,0,0,0c0,0,0,0,0,0c0.2,0,0.4,0,0.6,0
	c0.1,0,0.1,0,0.2,0c0.2,0,0.3-0.1,0.5-0.1c0.1,0,0.1,0,0.2,0c0.2-0.1,0.4-0.1,0.6-0.2c0,0,0.1,0,0.1-0.1c0.1-0.1,0.3-0.2,0.4-0.2
	c0,0,0.1,0,0.1-0.1c0.3-0.2,0.6-0.5,0.9-0.8l2.4-2.7l8.2-9.4l8.5-9.8H128.7z"/>
</svg>
