<?xml version="1.0" encoding="utf-8"?>
<!-- Generator: Adobe Illustrator 22.1.0, SVG Export Plug-In . SVG Version: 6.00 Build 0)  -->
<svg version="1.1" id="Layer_1" xmlns="http://www.w3.org/2000/svg" xmlns:xlink="http://www.w3.org/1999/xlink" x="0px" y="0px"
	 viewBox="0 0 382.2 140.2" style="enable-background:new 0 0 382.2 140.2;" xml:space="preserve">
<style type="text/css">
	.st0{fill:#E5B138;}
	.st1{fill:#184C9C;}
	.st2{fill:none;}
</style>
<g>
	<path class="st0" d="M73.9,99.8h1.2v-7.7h-1.2v-1.1h4.3c0.7,0,1.3,0,1.8,0.2c1,0.3,1.7,1.2,1.7,2.6c0,1.4-0.8,2.4-2,2.8v0
		c0,0,0.3,0.1,0.4,0.5l1.4,2.4c0.2,0.3,0.3,0.3,0.7,0.3h0.3v1.1h-0.8c-0.8,0-1-0.2-1.4-0.7l-1.5-2.7c-0.3-0.4-0.4-0.5-1-0.5h-1.2
		v2.9h1.2v1.1h-3.8V99.8z M78.5,95.8c1.1,0,1.8-0.7,1.8-1.9c0-0.8-0.3-1.3-0.9-1.5c-0.3-0.1-0.7-0.2-1.2-0.2h-1.6v3.6H78.5z"/>
	<path class="st0" d="M86.6,93.7c2,0,3.1,1.5,3.1,3.3c0,0.2,0,0.5,0,0.5h-5.2c0.1,1.6,1.2,2.4,2.4,2.4c1.2,0,2.1-0.8,2.1-0.8l0.6,1
		c0,0-1.1,1-2.7,1c-2.2,0-3.7-1.6-3.7-3.7C83.1,95.1,84.6,93.7,86.6,93.7z M88.3,96.6c0-1.2-0.8-1.9-1.7-1.9c-1,0-1.9,0.7-2.1,1.9
		H88.3z"/>
	<path class="st0" d="M91.8,102.6v-7.4c0-0.2-0.1-0.3-0.3-0.3h-0.9v-1h1.6c0.6,0,0.9,0.3,0.9,0.7v0.1c0,0.2,0,0.4,0,0.4h0
		c0,0,0.6-1.3,2.4-1.3c1.9,0,3.1,1.5,3.1,3.7c0,2.2-1.4,3.7-3.2,3.7c-1.5,0-2.2-1.2-2.2-1.2h0c0,0,0,0.3,0,0.6v2.2h1.1v1h-3.6v-1
		H91.8z M95.1,99.9c1.1,0,2-0.9,2-2.5c0-1.5-0.8-2.5-2-2.5c-1,0-2,0.7-2,2.5C93.1,98.7,93.8,99.9,95.1,99.9z"/>
	<path class="st0" d="M100.3,94.9h-1.2v-1h2.5v4.2c0,1,0.2,1.8,1.3,1.8c1.4,0,2.3-1.4,2.3-2.7v-2.2h-1.2v-1h2.5v5.7
		c0,0.2,0.1,0.3,0.3,0.3h0.7v1h-1.5c-0.6,0-0.9-0.3-0.9-0.8v-0.3c0-0.2,0-0.4,0-0.4h0c-0.1,0.4-0.9,1.7-2.7,1.7
		c-1.5,0-2.3-0.8-2.3-2.7V94.9z"/>
	<path class="st0" d="M109.5,94.9h-1.2v-1h1.2v-1.9h1.3v1.9h1.7v1h-1.7v3.3c0,1.4,1,1.6,1.5,1.6c0.2,0,0.3,0,0.3,0v1.1
		c0,0-0.2,0-0.5,0c-0.9,0-2.7-0.3-2.7-2.6V94.9z"/>
	<path class="st0" d="M117.6,96.6h0.4v-0.3c0-1.1-0.6-1.5-1.5-1.5c-1.1,0-2,0.7-2,0.7l-0.5-1c0,0,1-0.8,2.7-0.8
		c1.8,0,2.7,0.9,2.7,2.7v3.2c0,0.2,0.1,0.3,0.3,0.3h0.7v1H119c-0.6,0-0.9-0.3-0.9-0.8V100c0-0.3,0.1-0.5,0.1-0.5h0
		c0,0-0.6,1.5-2.3,1.5c-1.2,0-2.3-0.7-2.3-2.1C113.5,96.7,116.5,96.6,117.6,96.6z M116.1,100c1.2,0,1.9-1.2,1.9-2.3v-0.3h-0.3
		c-0.6,0-2.9,0-2.9,1.4C114.9,99.5,115.3,100,116.1,100z"/>
	<path class="st0" d="M121.8,94.9h-1.2v-1h1.2v-1.9h1.3v1.9h1.7v1h-1.7v3.3c0,1.4,1,1.6,1.5,1.6c0.2,0,0.3,0,0.3,0v1.1
		c0,0-0.2,0-0.5,0c-0.9,0-2.7-0.3-2.7-2.6V94.9z"/>
	<path class="st0" d="M126.1,99.9h1.1v-5H126v-1h2.5v6h1.1v1h-3.6V99.9z M127.2,91.1h1.4v1.4h-1.4V91.1z"/>
	<path class="st0" d="M134.1,93.7c2.1,0,3.8,1.5,3.8,3.7c0,2.1-1.7,3.7-3.8,3.7c-2.1,0-3.8-1.6-3.8-3.7
		C130.3,95.2,132,93.7,134.1,93.7z M134.1,99.9c1.3,0,2.4-1.1,2.4-2.5c0-1.5-1.1-2.5-2.4-2.5c-1.3,0-2.4,1-2.4,2.5
		C131.7,98.8,132.8,99.9,134.1,99.9z"/>
	<path class="st0" d="M138.8,99.9h1.1v-4.7c0-0.2-0.1-0.3-0.3-0.3h-0.9v-1h1.6c0.6,0,0.9,0.3,0.9,0.8V95c0,0.2,0,0.4,0,0.4h0
		c0.1-0.4,1-1.7,2.7-1.7c1.6,0,2.3,0.9,2.3,2.7v3.5h1.1v1H145v-4.2c0-1-0.2-1.8-1.3-1.8c-1.4,0-2.4,1.3-2.4,2.7v2.2h1.1v1h-3.6V99.9
		z"/>
	<path class="st0" d="M148.8,99.4h1.5v1.5h-1.5V99.4z"/>
	<path class="st0" d="M155.5,99.8h1.2v-7.7h-1.2v-1.1h4.3c0.7,0,1.3,0,1.8,0.2c1,0.3,1.7,1.2,1.7,2.6c0,1.4-0.8,2.4-2,2.8v0
		c0,0,0.3,0.1,0.4,0.5l1.4,2.4c0.2,0.3,0.3,0.3,0.7,0.3h0.3v1.1h-0.8c-0.8,0-1-0.2-1.4-0.7l-1.5-2.7c-0.3-0.4-0.4-0.5-1-0.5h-1.2
		v2.9h1.2v1.1h-3.8V99.8z M160.1,95.8c1.1,0,1.8-0.7,1.8-1.9c0-0.8-0.3-1.3-0.9-1.5c-0.3-0.1-0.7-0.2-1.2-0.2h-1.6v3.6H160.1z"/>
	<path class="st0" d="M168.3,93.7c2,0,3.1,1.5,3.1,3.3c0,0.2,0,0.5,0,0.5h-5.2c0.1,1.6,1.2,2.4,2.4,2.4c1.2,0,2.1-0.8,2.1-0.8l0.6,1
		c0,0-1.1,1-2.7,1c-2.2,0-3.7-1.6-3.7-3.7C164.7,95.1,166.2,93.7,168.3,93.7z M169.9,96.6c0-1.2-0.8-1.9-1.7-1.9
		c-1,0-1.9,0.7-2.1,1.9H169.9z"/>
	<path class="st0" d="M172.8,92.1h-1.2v-1h2.5v7.8c0,0.6,0.1,1,0.8,1c0.2,0,0.4,0,0.4,0l0,1.1c0,0-0.3,0-0.6,0c-1,0-1.9-0.4-1.9-2
		V92.1z"/>
	<path class="st0" d="M176.4,99.9h1.1v-5h-1.2v-1h2.5v6h1.1v1h-3.6V99.9z M177.4,91.1h1.4v1.4h-1.4V91.1z"/>
	<path class="st0" d="M184.9,96.6h0.4v-0.3c0-1.1-0.6-1.5-1.5-1.5c-1.1,0-2,0.7-2,0.7l-0.5-1c0,0,1-0.8,2.7-0.8
		c1.8,0,2.7,0.9,2.7,2.7v3.2c0,0.2,0.1,0.3,0.3,0.3h0.7v1h-1.4c-0.6,0-0.9-0.3-0.9-0.8V100c0-0.3,0.1-0.5,0.1-0.5h0
		c0,0-0.6,1.5-2.3,1.5c-1.2,0-2.3-0.7-2.3-2.1C180.8,96.7,183.8,96.6,184.9,96.6z M183.5,100c1.2,0,1.9-1.2,1.9-2.3v-0.3h-0.3
		c-0.6,0-2.9,0-2.9,1.4C182.2,99.5,182.7,100,183.5,100z"/>
	<path class="st0" d="M189,92.1h-1.2v-1h2.5v3.3c0,0.3,0,0.6,0,0.6h0c0,0,0.6-1.2,2.3-1.2c1.9,0,3.1,1.5,3.1,3.7
		c0,2.2-1.4,3.7-3.2,3.7c-1.6,0-2.2-1.3-2.2-1.3h0c0,0,0,0.3,0,0.6v0.6H189V92.1z M192.3,99.9c1.1,0,2-0.9,2-2.5
		c0-1.5-0.8-2.5-2-2.5c-1,0-2,0.7-2,2.5C190.3,98.7,191,99.9,192.3,99.9z"/>
	<path class="st0" d="M196.7,99.9h1.1v-5h-1.2v-1h2.5v6h1.1v1h-3.6V99.9z M197.8,91.1h1.4v1.4h-1.4V91.1z"/>
	<path class="st0" d="M201.8,92.1h-1.2v-1h2.5v7.8c0,0.6,0.1,1,0.8,1c0.2,0,0.4,0,0.4,0l0,1.1c0,0-0.3,0-0.6,0c-1,0-1.9-0.4-1.9-2
		V92.1z"/>
	<path class="st0" d="M205.4,99.9h1.1v-5h-1.2v-1h2.5v6h1.1v1h-3.6V99.9z M206.4,91.1h1.4v1.4h-1.4V91.1z"/>
	<path class="st0" d="M210.5,94.9h-1.2v-1h1.2v-1.9h1.3v1.9h1.7v1h-1.7v3.3c0,1.4,1,1.6,1.5,1.6c0.2,0,0.3,0,0.3,0v1.1
		c0,0-0.2,0-0.5,0c-0.9,0-2.7-0.3-2.7-2.6V94.9z"/>
	<path class="st0" d="M215.9,102.7c0.6,0,1.1-0.4,1.3-1l0.3-0.7l-2.5-6.1h-0.9v-1h3.2v1h-0.9l1.6,4.2c0.1,0.3,0.1,0.6,0.1,0.6h0
		c0,0,0.1-0.3,0.2-0.6l1.6-4.2H219v-1h3.1v1h-0.9l-2.8,7.1c-0.5,1.2-1.4,1.8-2.5,1.8c-0.9,0-1.5-0.4-1.5-0.4l0.5-1
		C214.9,102.4,215.3,102.7,215.9,102.7z"/>
	<path class="st0" d="M221.6,99.4h1.5v1.5h-1.5V99.4z"/>
	<path class="st1" d="M233.4,90.9c1.7,0,3.8,0.7,3.8,1.9V94h-1.3v-0.7c0-0.8-1.3-1.2-2.5-1.2c-2.3,0-3.8,1.6-3.8,3.8
		c0,2.3,1.5,3.9,3.8,3.9c0.9,0,2.6-0.3,2.6-1.2v-1.3h-1.9v-1.1h3.2V99c0,1.5-2.5,2.1-4,2.1c-3,0-5.1-2.2-5.1-5.1
		S230.3,90.9,233.4,90.9z"/>
	<path class="st1" d="M239.7,94.9h-1.2v-1h2.5v4.2c0,1,0.2,1.8,1.3,1.8c1.4,0,2.3-1.4,2.3-2.7v-2.2h-1.2v-1h2.5v5.7
		c0,0.2,0.1,0.3,0.3,0.3h0.7v1h-1.5c-0.6,0-0.9-0.3-0.9-0.8v-0.3c0-0.2,0-0.4,0-0.4h0c-0.1,0.4-0.9,1.7-2.7,1.7
		c-1.5,0-2.3-0.8-2.3-2.7V94.9z"/>
	<path class="st1" d="M252.1,96.6h0.4v-0.3c0-1.1-0.6-1.5-1.5-1.5c-1.1,0-2,0.7-2,0.7l-0.5-1c0,0,1-0.8,2.7-0.8
		c1.8,0,2.7,0.9,2.7,2.7v3.2c0,0.2,0.1,0.3,0.3,0.3h0.7v1h-1.4c-0.6,0-0.9-0.3-0.9-0.8V100c0-0.3,0.1-0.5,0.1-0.5h0
		c0,0-0.6,1.5-2.3,1.5c-1.2,0-2.3-0.7-2.3-2.1C248,96.7,250.9,96.6,252.1,96.6z M250.6,100c1.2,0,1.9-1.2,1.9-2.3v-0.3h-0.3
		c-0.6,0-2.9,0-2.9,1.4C249.3,99.5,249.8,100,250.6,100z"/>
	<path class="st1" d="M255.9,99.9h1.1v-4.7c0-0.2-0.1-0.3-0.3-0.3h-0.9v-1h1.6c0.6,0,0.9,0.3,0.9,0.8v0.4c0,0.3,0,0.5,0,0.5h0
		c0.3-1,1.1-1.8,2.2-1.8c0.2,0,0.3,0,0.3,0v1.3c0,0-0.2,0-0.4,0c-1.5,0-2.1,1.5-2.1,2.9v1.9h1v1h-3.5V99.9z"/>
	<path class="st1" d="M265.4,96.6h0.4v-0.3c0-1.1-0.6-1.5-1.5-1.5c-1.1,0-2,0.7-2,0.7l-0.5-1c0,0,1-0.8,2.7-0.8
		c1.8,0,2.7,0.9,2.7,2.7v3.2c0,0.2,0.1,0.3,0.3,0.3h0.7v1h-1.4c-0.6,0-0.9-0.3-0.9-0.8V100c0-0.3,0.1-0.5,0.1-0.5h0
		c0,0-0.6,1.5-2.3,1.5c-1.2,0-2.3-0.7-2.3-2.1C261.3,96.7,264.2,96.6,265.4,96.6z M263.9,100c1.2,0,1.9-1.2,1.9-2.3v-0.3h-0.3
		c-0.6,0-2.9,0-2.9,1.4C262.7,99.5,263.1,100,263.9,100z"/>
	<path class="st1" d="M269.2,99.9h1.1v-4.7c0-0.2-0.1-0.3-0.3-0.3h-0.9v-1h1.6c0.6,0,0.9,0.3,0.9,0.8V95c0,0.2,0,0.4,0,0.4h0
		c0.1-0.4,1-1.7,2.7-1.7c1.6,0,2.3,0.9,2.3,2.7v3.5h1.1v1h-2.5v-4.2c0-1-0.2-1.8-1.3-1.8c-1.4,0-2.4,1.3-2.4,2.7v2.2h1.1v1h-3.6
		V99.9z"/>
	<path class="st1" d="M279,94.9h-1.2v-1h1.2v-1.9h1.3v1.9h1.7v1h-1.7v3.3c0,1.4,1,1.6,1.5,1.6c0.2,0,0.3,0,0.3,0v1.1
		c0,0-0.2,0-0.5,0c-0.9,0-2.7-0.3-2.7-2.6V94.9z"/>
	<path class="st1" d="M286.6,93.7c2,0,3.1,1.5,3.1,3.3c0,0.2,0,0.5,0,0.5h-5.2c0.1,1.6,1.2,2.4,2.4,2.4c1.2,0,2.1-0.8,2.1-0.8l0.6,1
		c0,0-1.1,1-2.7,1c-2.2,0-3.7-1.6-3.7-3.7C283.1,95.1,284.6,93.7,286.6,93.7z M288.3,96.6c0-1.2-0.8-1.9-1.7-1.9
		c-1,0-1.9,0.7-2.1,1.9H288.3z"/>
	<path class="st1" d="M294.1,93.7c2,0,3.1,1.5,3.1,3.3c0,0.2,0,0.5,0,0.5h-5.2c0.1,1.6,1.2,2.4,2.4,2.4c1.2,0,2.1-0.8,2.1-0.8l0.6,1
		c0,0-1.1,1-2.7,1c-2.2,0-3.7-1.6-3.7-3.7C290.6,95.1,292.1,93.7,294.1,93.7z M295.8,96.6c0-1.2-0.8-1.9-1.7-1.9
		c-1,0-1.9,0.7-2.1,1.9H295.8z"/>
	<path class="st1" d="M301.2,93.7c1.6,0,2.2,1.2,2.2,1.2h0c0,0,0-0.2,0-0.5v-2.2h-1.2v-1h2.5v8.5c0,0.2,0.1,0.3,0.3,0.3h0.7v1h-1.4
		c-0.6,0-0.9-0.3-0.9-0.8V100c0-0.2,0-0.4,0-0.4h0c0,0-0.6,1.4-2.4,1.4c-1.9,0-3.1-1.5-3.1-3.7C298,95.1,299.3,93.7,301.2,93.7z
		 M301.4,99.9c1,0,2-0.8,2-2.5c0-1.3-0.7-2.5-2-2.5c-1.1,0-2,0.9-2,2.5C299.4,98.9,300.2,99.9,301.4,99.9z"/>
	<path class="st1" d="M307.3,99.4h1.5v1.5h-1.5V99.4z"/>
</g>
<path class="st1" d="M27.9,68.2l6-7.2c3.7,2.8,7.8,3.9,11.8,3.9c2,0,2.9-0.5,2.9-1.4v-0.1c0-1-1.1-1.5-4.7-2.2
	c-7.5-1.5-14.2-3.7-14.2-10.8v-0.1c0-6.4,5-11.3,14.3-11.3c6.5,0,11.3,1.5,15.2,4.6l-5.5,7.6c-3.2-2.3-7-3.3-10.1-3.3
	c-1.7,0-2.5,0.6-2.5,1.4v0.1c0,0.9,0.9,1.5,4.5,2.2C54.2,53.1,60,55.6,60,62.4v0.1c0,7.1-5.8,11.4-14.8,11.4
	C38.3,73.9,32.2,71.9,27.9,68.2z"/>
<path class="st1" d="M77.2,49.1h-9.9v-9.5h31v9.5h-9.9v24.1H77.2V49.1z"/>
<path class="st1" d="M148.1,39.6h28.2v9.6h-16.9v4.3h15.7v8.7h-15.7v11h-11.2V39.6z"/>
<path class="st1" d="M186.1,39.6h28.2v9.6h-16.9v4.3h15.7v8.7h-15.7v11h-11.2V39.6z"/>
<path class="st0" d="M224.1,39.6h11.2v24h15.8v9.6h-27.1V39.6z"/>
<path class="st0" d="M260.4,39.6h11.2v33.6h-11.2V39.6z"/>
<path class="st0" d="M282.4,39.6h10.5l12,14.8V39.6h11.1v33.6h-10l-12.5-15.5v15.5h-11.1V39.6z"/>
<path class="st0" d="M326,39.6h28.7v9.2H337v3.4h16.4v8.1H337V64h17.9v9.2H326V39.6z"/>
<polygon class="st2" points="116.4,58.7 118.7,61.3 121,58.7 118.7,52.6 "/>
<polygon class="st1" points="116.4,58.7 118.7,52.6 121,58.7 128.7,49.8 124.4,39.4 113.2,39.4 105.1,58.6 116.4,58.6 "/>
<polygon class="st1" points="124.6,68.9 126.3,73.2 138.5,73.2 132.8,59.5 "/>
<polygon class="st1" points="99,73.2 111.1,73.2 112.7,68.9 104.7,59.7 "/>
<path class="st0" d="M128.7,49.8L128.7,49.8l-7.7,8.9l-2.3,2.6l-2.3-2.6l0,0h-11.3h-1.4l0.9,1.1l8,9.2l2.4,2.7
	c0.3,0.3,0.6,0.6,0.9,0.8c0,0,0.1,0,0.1,0.1c0.1,0.1,0.3,0.2,0.4,0.2c0,0,0.1,0.1,0.1,0.1c0.2,0.1,0.4,0.2,0.6,0.2
	c0.1,0,0.1,0,0.2,0c0.2,0,0.3,0.1,0.5,0.1c0.1,0,0.1,0,0.2,0c0.2,0,0.4,0,0.6,0c0,0,0,0,0,0c0,0,0,0,0,0c0.2,0,0.4,0,0.6,0
	c0.1,0,0.1,0,0.2,0c0.2,0,0.3-0.1,0.5-0.1c0.1,0,0.1,0,0.2,0c0.2-0.1,0.4-0.1,0.6-0.2c0,0,0.1,0,0.1-0.1c0.1-0.1,0.3-0.2,0.4-0.2
	c0,0,0.1,0,0.1-0.1c0.3-0.2,0.6-0.5,0.9-0.8l2.4-2.7l8.2-9.4l8.5-9.8H128.7z"/>
</svg>
